# Blender v2.93.5 OBJ File: 'CryptWall.blend'
# www.blender.org
mtllib CryptWall.mtl
o Cript_wall_1test_(2)
v -200.000000 -100.029404 25.000032
v -200.000000 -200.000000 24.999968
v 200.000000 -200.000000 24.999968
v 200.000000 -100.029404 25.000032
v -200.000000 -100.029388 -24.999968
v 200.000000 -100.029388 -24.999968
v -200.000000 -200.000000 -25.000032
v 200.000000 -200.000000 -25.000032
vt 0.375000 0.062482
vt 0.375000 0.000000
vt 0.625000 0.000000
vt 0.625000 0.062482
vt 0.375000 0.500000
vt 0.375000 0.250000
vt 0.625000 0.250000
vt 0.625000 0.500000
vt 0.375000 0.750000
vt 0.375000 0.687518
vt 0.625000 0.687518
vt 0.625000 0.750000
vt 0.375000 1.000000
vt 0.625000 1.000000
vt 0.875000 0.000000
vt 0.875000 0.062482
vt 0.125000 0.062482
vt 0.125000 0.000000
vn 0.0000 -0.0000 1.0000
vn 0.0000 1.0000 0.0000
vn 0.0000 0.0000 -1.0000
vn 0.0000 -1.0000 0.0000
vn 1.0000 0.0000 0.0000
vn -1.0000 0.0000 0.0000
usemtl initialShadingGroup
s 1
f 1/1/1 2/2/1 3/3/1
f 3/3/1 4/4/1 1/1/1
f 5/5/2 1/6/2 4/7/2
f 4/7/2 6/8/2 5/5/2
f 7/9/3 5/10/3 6/11/3
f 6/11/3 8/12/3 7/9/3
f 2/13/4 7/9/4 8/12/4
f 8/12/4 3/14/4 2/13/4
f 4/4/5 3/3/5 8/15/5
f 8/15/5 6/16/5 4/4/5
f 5/17/6 7/18/6 2/2/6
f 2/2/6 1/1/6 5/17/6
o Cript_wall_1test_(2).001_Cript_wall_1test_(2).002
v -200.000000 200.000000 25.000032
v -200.000000 -99.955154 24.999968
v 200.000000 -99.955154 24.999968
v 200.000000 200.000000 25.000032
v -200.000000 200.000000 -24.999968
v 200.000000 200.000000 -24.999968
v -200.000000 -99.955139 -25.000032
v 200.000000 -99.955139 -25.000032
vt 0.375000 0.250000
vt 0.375000 0.062528
vt 0.625000 0.062528
vt 0.625000 0.250000
vt 0.375000 0.500000
vt 0.625000 0.500000
vt 0.375000 0.687472
vt 0.625000 0.687472
vt 0.375000 1.000000
vt 0.375000 0.750000
vt 0.625000 0.750000
vt 0.625000 1.000000
vt 0.875000 0.062528
vt 0.875000 0.250000
vt 0.125000 0.250000
vt 0.125000 0.062528
vn 0.0000 -0.0000 1.0000
vn 0.0000 1.0000 0.0000
vn 0.0000 0.0000 -1.0000
vn 0.0000 -1.0000 -0.0000
vn 1.0000 0.0000 0.0000
vn -1.0000 0.0000 0.0000
usemtl initialShadingGroup
s 1
f 9/19/7 10/20/7 11/21/7
f 11/21/7 12/22/7 9/19/7
f 13/23/8 9/19/8 12/22/8
f 12/22/8 14/24/8 13/23/8
f 15/25/9 13/23/9 14/24/9
f 14/24/9 16/26/9 15/25/9
f 10/27/10 15/28/10 16/29/10
f 16/29/10 11/30/10 10/27/10
f 12/22/11 11/21/11 16/31/11
f 16/31/11 14/32/11 12/22/11
f 13/33/12 15/34/12 10/20/12
f 10/20/12 9/19/12 13/33/12
