# This file uses centimeters as units for non-parametric coordinates.

mtllib Chair.mtl
g default
v 0.264704 0.390080 0.215463
v 0.264704 0.390080 -0.215463
v 0.695631 0.390080 0.215463
v 0.695631 0.390080 -0.215463
v 0.264704 0.333115 0.215463
v 0.264704 0.333115 -0.215463
v 0.695631 0.333115 -0.215463
v 0.695631 0.333115 0.215463
v 0.643103 0.390080 -0.215463
v 0.264704 0.333115 0.159114
v 0.644705 0.333115 0.158413
v 0.695631 0.333115 0.158319
v 0.321878 0.333115 0.159009
v 0.321878 0.333115 -0.158122
v 0.264704 0.333115 -0.158017
v 0.644705 0.333115 -0.158718
v 0.695631 0.333115 -0.158812
v 0.321878 0.333115 -0.215463
v 0.321878 0.333115 0.215463
v 0.644705 0.333115 0.215463
v 0.644705 0.333115 -0.215463
v 0.695631 0.004808 0.158319
v 0.695631 0.004808 0.215463
v 0.264704 0.004808 -0.158017
v 0.264704 0.004808 -0.215463
v 0.321878 0.004808 0.215463
v 0.264704 0.004808 0.215463
v 0.321878 0.004808 -0.158122
v 0.321878 0.004808 -0.215463
v 0.695631 0.004808 -0.215463
v 0.695631 0.004808 -0.158812
v 0.321878 0.004808 0.159009
v 0.264704 0.004808 0.159114
v 0.644705 0.004808 0.215463
v 0.644705 0.004808 0.158413
v 0.644705 0.004808 -0.158718
v 0.644705 0.004808 -0.215463
v 0.643532 0.390080 0.215463
v 0.321482 0.390080 0.215463
v 0.322244 0.390080 -0.215463
v 0.643103 0.896685 -0.215463
v 0.643532 0.896685 0.215463
v 0.695631 0.896685 -0.215463
v 0.695631 0.896685 0.215463
vt 0.000000 0.000000
vt 0.823066 0.940215
vt 0.295673 0.000000
vt 0.969454 0.518718
vt 0.340427 0.045002
vt 0.000000 0.045002
vt 0.777922 0.680855
vt 0.823066 0.680855
vt 0.924700 0.259358
vt 0.969454 0.259358
vt 0.340427 0.445214
vt 0.000000 0.445214
vt 0.924700 0.778076
vt 0.924700 0.518718
vt 0.969298 0.518718
vt 0.969298 0.778076
vt 0.777922 0.680855
vt 0.821956 0.000000
vt 0.685445 0.740638
vt 0.640930 0.740638
vt 0.822924 0.340429
vt 0.822924 0.680855
vt 0.867338 0.259358
vt 0.821956 0.259358
vt 0.685445 0.999998
vt 0.640930 0.999998
vt 0.826848 0.518718
vt 0.826848 0.259358
vt 0.872147 0.259358
vt 0.872147 0.518718
vt 0.303341 0.954832
vt 0.303341 0.695473
vt 0.348410 0.695473
vt 0.348410 0.954832
vt 0.924700 0.259358
vt 0.924700 0.000000
vt 0.969528 0.000000
vt 0.969528 0.259358
vt 0.682909 0.000000
vt 0.682909 0.400213
vt 0.342482 0.400213
vt 0.342482 0.000000
vt 0.682909 0.440444
vt 0.682909 0.695473
vt 0.638310 0.695473
vt 0.637839 0.440444
vt 0.387780 0.695473
vt 0.387310 0.440444
vt 0.638393 0.740640
vt 0.387863 0.740640
vt 0.342482 0.695473
vt 0.342482 0.440444
vt 0.387235 0.400213
vt 0.637765 0.400213
vt 0.681161 0.695473
vt 0.681161 0.740616
vt 0.640930 0.740616
vt 0.640930 0.695548
vt 0.440333 0.786022
vt 0.440333 0.740640
vt 0.485500 0.740640
vt 0.485500 0.785939
vt 0.578416 0.740640
vt 0.578416 0.785394
vt 0.538185 0.785468
vt 0.538185 0.740640
vt 0.533857 0.740640
vt 0.533857 0.785807
vt 0.489342 0.785807
vt 0.489259 0.740640
vt 0.298931 0.785641
vt 0.045456 0.785641
vt 0.044854 0.445214
vt 0.299270 0.445214
vt 0.000000 0.785641
vt 0.000000 0.445214
vt 0.726460 0.740638
vt 0.684963 0.740638
vt 0.685302 0.400213
vt 0.726460 0.400213
vt 0.920941 0.000000
vt 0.920941 0.259360
vt 0.875774 0.259360
vt 0.875774 0.000000
vt 0.773998 0.695473
vt 0.920941 0.518719
vt 0.875774 0.518719
vt 0.875774 0.259360
vt 0.728996 0.740640
vt 0.728996 0.695184
vt 0.728996 0.441709
vt 0.773998 0.440443
vt 0.726460 0.400213
vt 0.392498 0.740640
vt 0.684963 0.000000
vt 0.726460 0.000000
vt 0.392498 0.999999
vt 0.352267 0.999999
vt 0.818031 0.000000
vt 0.728996 0.000000
vt 0.773030 0.040231
vt 0.436531 0.999999
vt 0.770154 0.400212
vt 0.728996 0.400212
vt 0.818031 0.295575
vt 0.773030 0.295262
vt 0.396300 0.740640
vt 0.436531 0.740640
vt 0.818031 0.340429
vt 0.773030 0.340429
vt 0.875774 0.518719
vt 0.920941 0.518719
vt 0.733889 0.999998
vt 0.733889 0.740640
vt 0.774120 0.740640
vt 0.774120 0.999998
vt 0.730087 0.740640
vt 0.730087 1.000000
vt 0.689856 1.000000
vt 0.689856 0.740640
vt 0.826848 0.778078
vt 0.826848 0.518718
vt 0.872015 0.518718
vt 0.872015 0.778078
vt 0.920941 0.778077
vt 0.875774 0.778077
vt 0.396300 0.999999
vt 0.773030 0.000000
vt 0.770154 0.000000
vt 0.818031 0.041158
vt 0.684963 0.400213
vt 0.728996 0.400212
vt 0.352267 0.740640
vt 0.773998 0.400212
vt 0.773998 0.740640
vt 0.920941 0.259360
vt 0.924700 0.518718
vt 0.340427 0.000000
vt 0.777922 0.940215
vt 0.045143 0.000000
vt 0.777922 0.384944
vt 0.777922 0.340429
vt 0.867338 0.000000
vt 0.777922 0.635474
vn 0.000000 -1.000000 0.000000
vn 0.000000 -1.000000 0.000000
vn 0.000000 -1.000000 0.000000
vn 0.000000 -1.000000 0.000000
vn -0.001800 0.000000 -0.999998
vn -0.001800 0.000000 -0.999998
vn -0.001800 0.000000 -0.999998
vn -0.001800 0.000000 -0.999998
vn 0.000000 0.000000 -1.000000
vn 0.000000 0.000000 -1.000000
vn 0.000000 0.000000 -1.000000
vn 0.000000 0.000000 -1.000000
vn 1.000000 0.000000 0.000000
vn 1.000000 0.000000 0.000000
vn 1.000000 0.000000 0.000000
vn 1.000000 0.000000 0.000000
vn 1.000000 0.000000 0.000000
vn 1.000000 0.000000 0.000000
vn 0.000000 0.000000 1.000000
vn 0.000000 0.000000 1.000000
vn 0.000000 0.000000 1.000000
vn 0.000000 0.000000 1.000000
vn 0.000000 -1.000000 0.000000
vn 0.000000 -1.000000 0.000000
vn 0.000000 -1.000000 0.000000
vn 0.000000 -1.000000 0.000000
vn 0.000000 0.000000 1.000000
vn 0.000000 0.000000 1.000000
vn 0.000000 0.000000 1.000000
vn 0.000000 0.000000 1.000000
vn 0.000000 -1.000000 0.000000
vn 0.000000 -1.000000 0.000000
vn 0.000000 -1.000000 0.000000
vn 0.000000 -1.000000 0.000000
vn 0.000000 -1.000000 0.000000
vn 0.000000 -1.000000 0.000000
vn 0.000000 -1.000000 0.000000
vn 0.000000 -1.000000 0.000000
vn 0.000000 -1.000000 0.000000
vn 0.000000 -1.000000 0.000000
vn 0.000000 -1.000000 0.000000
vn 0.000000 -1.000000 0.000000
vn 1.000000 0.000000 0.000000
vn 1.000000 0.000000 0.000000
vn 1.000000 0.000000 0.000000
vn 1.000000 0.000000 0.000000
vn 0.000000 0.000000 -1.000000
vn 0.000000 0.000000 -1.000000
vn 0.000000 0.000000 -1.000000
vn 0.000000 0.000000 -1.000000
vn -1.000000 0.000000 0.000000
vn -1.000000 0.000000 0.000000
vn -1.000000 0.000000 0.000000
vn -1.000000 0.000000 0.000000
vn -1.000000 0.000000 0.000000
vn -1.000000 0.000000 0.000000
vn 0.000000 -1.000000 0.000000
vn 0.000000 -1.000000 0.000000
vn 0.000000 -1.000000 0.000000
vn 0.000000 -1.000000 0.000000
vn 0.000000 -1.000000 0.000000
vn 0.000000 -1.000000 0.000000
vn 0.000000 -1.000000 0.000000
vn 0.000000 -1.000000 0.000000
vn 0.000000 -1.000000 0.000000
vn 0.000000 -1.000000 0.000000
vn 0.000000 -1.000000 0.000000
vn 0.000000 -1.000000 0.000000
vn 0.000000 -1.000000 0.000000
vn 0.000000 -1.000000 0.000000
vn 0.000000 -1.000000 0.000000
vn 0.000000 -1.000000 0.000000
vn 1.000000 0.000000 0.000000
vn 1.000000 0.000000 0.000000
vn 1.000000 0.000000 0.000000
vn 1.000000 0.000000 0.000000
vn 0.001800 0.000000 0.999998
vn 0.001800 0.000000 0.999998
vn 0.001800 0.000000 0.999998
vn 0.001800 0.000000 0.999998
vn -1.000000 0.000000 0.000000
vn -1.000000 0.000000 0.000000
vn -1.000000 0.000000 0.000000
vn -1.000000 0.000000 0.000000
vn -1.000000 0.000000 0.000000
vn -1.000000 0.000000 0.000000
vn -1.000000 0.000000 0.000000
vn -1.000000 0.000000 0.000000
vn -1.000000 0.000000 0.000000
vn -1.000000 0.000000 0.000000
vn -1.000000 0.000000 0.000000
vn -1.000000 0.000000 0.000000
vn -0.001800 0.000000 -0.999998
vn -0.001800 0.000000 -0.999998
vn -0.001800 0.000000 -0.999998
vn -0.001800 0.000000 -0.999998
vn 1.000000 0.000000 0.000000
vn 1.000000 0.000000 0.000000
vn 1.000000 0.000000 0.000000
vn 1.000000 0.000000 0.000000
vn 0.000000 0.000000 1.000000
vn 0.000000 0.000000 1.000000
vn 0.000000 0.000000 1.000000
vn 0.000000 0.000000 1.000000
vn 1.000000 0.000000 0.000000
vn 1.000000 0.000000 0.000000
vn 1.000000 0.000000 0.000000
vn 1.000000 0.000000 0.000000
vn 0.001800 0.000000 0.999998
vn 0.001800 0.000000 0.999998
vn 0.001800 0.000000 0.999998
vn 0.001800 0.000000 0.999998
vn 0.000000 0.000000 -1.000000
vn 0.000000 0.000000 -1.000000
vn 0.000000 0.000000 -1.000000
vn 0.000000 0.000000 -1.000000
vn -1.000000 0.000000 0.000000
vn -1.000000 0.000000 0.000000
vn -1.000000 0.000000 0.000000
vn -1.000000 0.000000 0.000000
vn 0.000000 1.000000 0.000000
vn 0.000000 1.000000 0.000000
vn 0.000000 1.000000 0.000000
vn 0.000000 1.000000 0.000000
vn 0.000000 0.000000 -1.000000
vn 0.000000 0.000000 -1.000000
vn 0.000000 0.000000 -1.000000
vn 0.000000 0.000000 -1.000000
vn -1.000000 0.000000 0.001000
vn -1.000000 0.000000 0.001000
vn -1.000000 0.000000 0.001000
vn -1.000000 0.000000 0.001000
vn 0.000000 0.000000 1.000000
vn 0.000000 0.000000 1.000000
vn 0.000000 0.000000 1.000000
vn 0.000000 0.000000 1.000000
vn 0.000000 0.000000 1.000000
vn 0.000000 0.000000 1.000000
vn 0.000000 0.000000 1.000000
vn 0.000000 0.000000 1.000000
vn 0.000000 0.000000 -1.000000
vn 0.000000 0.000000 -1.000000
vn 0.000000 0.000000 -1.000000
vn 0.000000 0.000000 -1.000000
vn 0.000000 1.000000 0.000000
vn 0.000000 1.000000 0.000000
vn 0.000000 1.000000 0.000000
vn 0.000000 1.000000 0.000000
vn 0.000000 1.000000 0.000000
vn 0.000000 1.000000 0.000000
vn 0.000000 1.000000 0.000000
vn 0.000000 1.000000 0.000000
vn 0.000000 0.000000 -1.000000
vn 0.000000 0.000000 -1.000000
vn 0.000000 0.000000 -1.000000
vn 0.000000 0.000000 -1.000000
vn 0.000000 0.000000 1.000000
vn 0.000000 0.000000 1.000000
vn 0.000000 0.000000 1.000000
vn 0.000000 0.000000 1.000000
vn 1.000000 0.000000 0.000000
vn 1.000000 0.000000 0.000000
vn 1.000000 0.000000 0.000000
vn 1.000000 0.000000 0.000000
s off
g Chair_FuckedUVs:Mesh
usemtl texturedFacets2
f 20/43/1 19/44/2 13/45/3 11/46/4
f 13/81/5 32/82/6 33/83/7 10/84/8
f 18/136/9 29/86/10 25/87/11 6/88/12
f 8/1/13 12/140/14 17/3/15 7/138/16 4/5/17 3/6/18
f 3/99/19 38/130/20 20/101/21 8/128/22
f 14/47/23 18/51/24 21/52/25 16/48/26
f 5/126/27 27/111/28 26/112/29 19/125/30
f 10/49/31 15/50/32 14/47/33 13/45/34
f 13/45/35 14/47/36 16/48/37 11/46/38
f 17/53/39 12/54/40 11/46/41 16/48/42
f 19/13/43 26/14/44 32/15/45 13/16/46
f 9/91/47 21/92/48 18/85/49 40/90/50
f 6/17/51 15/144/52 10/141/53 5/142/54 1/21/55 2/22/56
f 22/55/57 23/56/58 34/57/59 35/58/60
f 24/59/61 25/60/62 29/61/63 28/62/64
f 30/63/65 31/64/66 36/65/67 37/66/68
f 26/67/69 27/68/70 33/69/71 32/70/72
f 14/27/73 28/28/74 29/29/75 18/30/76
f 16/113/77 36/114/78 31/115/79 17/116/80
f 11/31/81 35/32/82 34/33/83 20/34/84
f 10/19/85 33/25/86 27/26/87 5/20/88
f 21/35/89 37/36/90 36/37/91 16/38/92
f 12/117/93 22/118/94 35/119/95 11/120/96
f 17/137/97 31/9/98 30/10/99 7/4/100
f 20/127/101 34/107/102 23/108/103 8/102/104
f 8/139/105 23/7/106 22/8/107 12/2/108
f 15/121/109 24/122/110 28/123/111 14/124/112
f 7/94/113 30/97/114 37/98/115 21/133/116
f 6/143/117 25/23/118 24/24/119 15/18/120
f 9/71/121 40/72/122 39/73/123 38/74/124
f 21/92/125 9/91/126 4/132/127 7/134/128
f 38/39/129 42/40/130 41/41/131 9/42/132
f 38/130/133 39/105/134 19/106/135 20/101/136
f 39/105/137 1/109/138 5/110/139 19/106/140
f 18/85/141 6/135/142 2/89/143 40/90/144
f 40/72/145 2/75/146 1/76/147 39/73/148
f 43/77/149 41/78/150 42/79/151 44/80/152
f 9/131/153 41/95/154 43/96/155 4/93/156
f 3/129/157 44/103/158 42/104/159 38/100/160
f 4/5/161 43/11/162 44/12/163 3/6/164
