# File produced by Open Asset Import Library (http://www.assimp.sf.net)
# (assimp v3.1.128981410)

mtllib Cript_wall_1test.mtl

# vertex positions
v -200.000000 -200.000000 25.000000
v 200.000000 -200.000000 25.000000
v 200.000000 200.000000 25.000000
v -200.000000 200.000000 25.000000
v 200.000000 200.000000 -25.000000
v -200.000000 200.000000 -25.000000
v 200.000000 -200.000000 -25.000000
v -200.000000 -200.000000 -25.000000

# UV coordinates
vt 0.375000 0.000000
vt 0.625000 0.000000
vt 0.625000 0.250000
vt 0.375000 0.250000
vt 0.625000 0.500000
vt 0.375000 0.500000
vt 0.625000 0.750000
vt 0.375000 0.750000
vt 0.625000 1.000000
vt 0.375000 1.000000
vt 0.875000 0.000000
vt 0.875000 0.250000
vt 0.125000 0.000000
vt 0.125000 0.250000

# vertex normals
vn 0.000000 0.000000 1.000000
vn 0.000000 1.000000 0.000000
vn 0.000000 0.000000 -1.000000
vn 0.000000 -1.000000 0.000000
vn 1.000000 0.000000 0.000000
vn -1.000000 0.000000 0.000000

# Mesh
g pCube1
usemtl initialShadingGroup
f 4/4/1 1/1/1 2/2/1
f 2/2/1 3/3/1 4/4/1
f 6/6/2 4/4/2 3/3/2
f 3/3/2 5/5/2 6/6/2
f 8/8/3 6/6/3 5/5/3
f 5/5/3 7/7/3 8/8/3
f 1/10/4 8/8/4 7/7/4
f 7/7/4 2/9/4 1/10/4
f 3/3/5 2/2/5 7/11/5
f 7/11/5 5/12/5 3/3/5
f 6/14/6 8/13/6 1/1/6
f 1/1/6 4/4/6 6/14/6
