# Blender v2.93.5 OBJ File: 'CryptWall.blend'
# www.blender.org
mtllib CryptWall_2.mtl
o Cript_wall_1test_(2).001_Cript_wall_1test_(2).002
v -200.000000 200.000000 25.000032
v -200.000000 -99.955154 24.999968
v 200.000000 -99.955154 24.999968
v 200.000000 200.000000 25.000032
v -200.000000 200.000000 -24.999968
v 200.000000 200.000000 -24.999968
v -200.000000 -99.955139 -25.000032
v 200.000000 -99.955139 -25.000032
vt 0.375000 0.250000
vt 0.375000 0.062528
vt 0.625000 0.062528
vt 0.625000 0.250000
vt 0.375000 0.500000
vt 0.625000 0.500000
vt 0.375000 0.687472
vt 0.625000 0.687472
vt 0.375000 1.000000
vt 0.375000 0.750000
vt 0.625000 0.750000
vt 0.625000 1.000000
vt 0.875000 0.062528
vt 0.875000 0.250000
vt 0.125000 0.250000
vt 0.125000 0.062528
vn 0.0000 -0.0000 1.0000
vn 0.0000 1.0000 0.0000
vn 0.0000 0.0000 -1.0000
vn 0.0000 -1.0000 -0.0000
vn 1.0000 0.0000 0.0000
vn -1.0000 0.0000 0.0000
usemtl initialShadingGroup
s 1
f 1/1/1 2/2/1 3/3/1
f 3/3/1 4/4/1 1/1/1
f 5/5/2 1/1/2 4/4/2
f 4/4/2 6/6/2 5/5/2
f 7/7/3 5/5/3 6/6/3
f 6/6/3 8/8/3 7/7/3
f 2/9/4 7/10/4 8/11/4
f 8/11/4 3/12/4 2/9/4
f 4/4/5 3/3/5 8/13/5
f 8/13/5 6/14/5 4/4/5
f 5/15/6 7/16/6 2/2/6
f 2/2/6 1/1/6 5/15/6
