# Blender v2.93.5 OBJ File: ''
# www.blender.org
mtllib WallCornerTall.mtl
o WallCorner
v 0.100000 -2.050000 -0.500000
v 0.100000 1.002674 -0.500000
v 0.500000 1.002674 -0.500000
v 0.500000 -2.050000 -0.500000
v 0.500000 1.002674 0.020008
v 0.500000 -2.050000 0.020008
v -0.500000 1.002674 -0.420008
v -0.500000 -2.050000 -0.420008
v -0.500000 -2.050000 0.100000
v -0.500000 1.002674 0.100000
v -0.420008 -2.050000 -0.500000
v -0.420008 1.002674 -0.500000
v -0.500000 -2.050000 0.500000
v 0.020008 -2.050000 0.500000
v 0.020008 1.002674 0.500000
v -0.500000 1.002674 0.500000
v 0.420008 -2.050000 0.100000
v 0.420008 1.002674 0.100000
v 0.100000 1.002674 0.100000
v 0.100000 -2.050000 0.100000
v 0.100000 1.002674 0.420008
v 0.100000 -2.050000 0.420008
v -0.476571 1.002674 -0.476571
v -0.476571 -2.050000 -0.476571
v 0.076571 -2.050000 0.476571
v 0.076571 1.002674 0.476571
v 0.476571 1.002674 0.076571
v 0.476571 -2.050000 0.076571
vt 0.641221 0.102474
vt 0.644449 0.696085
vt 0.564722 0.696519
vt 0.561494 0.102907
vt 0.461075 0.697082
vt 0.457847 0.103471
vt 0.210554 0.684756
vt 0.213188 0.114927
vt 0.312682 0.115387
vt 0.310049 0.685216
vt 0.189760 0.114819
vt 0.187127 0.684648
vt 0.087632 0.684188
vt 0.090266 0.114359
vt 0.765944 0.092447
vt 0.869851 0.092274
vt 0.870838 0.687380
vt 0.766931 0.687553
vt 0.687003 0.687685
vt 0.686016 0.092579
vt 0.433441 0.103604
vt 0.436669 0.697215
vt 0.372886 0.697562
vt 0.369658 0.103951
vt 0.895306 0.687340
vt 0.894319 0.092234
vt 0.958262 0.092128
vt 0.959249 0.687234
vt 0.198840 0.684702
vt 0.201474 0.114873
vt 0.882085 0.092254
vt 0.883072 0.687360
vt 0.448872 0.697149
vt 0.445644 0.103537
vt 0.201457 0.895524
vt 0.200997 0.995018
vt 0.086198 0.994487
vt 0.086728 0.879688
vt 0.186223 0.880148
vt 0.197024 0.884681
vt 0.090796 -0.000440
vt 0.205596 0.000090
vt 0.205136 0.099585
vt 0.200603 0.110386
vt 0.881146 0.087574
vt 0.765811 0.012519
vt 0.885703 0.012320
vt 0.885809 0.076264
vt 0.887187 0.907510
vt 0.887293 0.971454
vt 0.767402 0.971653
vt 0.767269 0.891725
vt 0.871177 0.891552
vt 0.882487 0.896215
vt 0.450934 0.905473
vt 0.462183 0.900741
vt 0.565830 0.900178
vt 0.566263 0.979905
vt 0.446673 0.980555
vt 0.446326 0.916772
vt 0.441816 0.087614
vt 0.441469 0.023831
vt 0.561060 0.023180
vt 0.446547 0.098862
vn 0.0000 0.0000 -1.0000
vn 0.9992 0.0001 0.0406
vn 0.9992 -0.0000 0.0406
vn 1.0000 -0.0000 0.0000
vn -0.9992 0.0000 -0.0406
vn -1.0000 -0.0000 0.0000
vn -0.0406 0.0001 -0.9992
vn -0.0406 0.0000 -0.9992
vn 0.0000 -0.0000 1.0000
vn 0.0406 -0.0000 0.9992
vn 0.0621 -0.0000 0.9981
vn 0.9981 0.0000 0.0621
vn -0.9239 0.0000 -0.3827
vn -0.3827 0.0000 -0.9239
vn 0.3827 -0.0000 0.9239
vn 0.9239 -0.0000 0.3827
vn 0.0000 1.0000 0.0000
vn 0.0000 -1.0000 0.0000
usemtl initialShadingGroup
s 1
f 1/1/1 2/2/1 3/3/1 4/4/1
f 5/5/2 6/6/3 4/4/4 3/3/4
f 7/7/5 8/8/5 9/9/6 10/10/6
f 11/11/7 12/12/8 2/13/1 1/14/1
f 13/15/9 14/16/10 15/17/10 16/18/9
f 10/19/6 9/20/6 13/15/6 16/18/6
f 17/21/11 18/22/11 19/23/9 20/24/9
f 21/25/12 22/26/12 20/27/4 19/28/4
f 7/7/5 23/29/13 24/30/13 8/8/5
f 23/29/14 12/12/8 11/11/7 24/30/14
f 14/16/10 25/31/15 26/32/15 15/17/10
f 25/31/16 22/26/12 21/25/12 26/32/16
f 5/5/2 27/33/16 28/34/16 6/6/3
f 27/33/15 18/22/11 17/21/11 28/34/15
f 7/35/17 10/36/17 19/37/17 2/38/17 12/39/17 23/40/17
f 1/14/18 20/41/18 9/42/18 8/43/18 24/44/18 11/11/18
f 25/45/18 14/16/18 13/15/18 9/46/18 20/47/18 22/48/18
f 21/49/17 19/50/17 10/51/17 16/52/17 15/53/17 26/54/17
f 27/55/17 5/56/17 3/57/17 2/58/17 19/59/17 18/60/17
f 17/61/18 20/62/18 1/63/18 4/4/18 6/6/18 28/64/18
